<svg xmlns="http://www.w3.org/2000/svg" width="24" height="24" viewBox="0 0 24 24">
    <defs>
        <filter id="ekhrvfbj4a" color-interpolation-filters="auto">
            <feColorMatrix in="SourceGraphic" values="0 0 0 0 0.588235 0 0 0 0 0.623529 0 0 0 0 0.752941 0 0 0 1.000000 0"/>
        </filter>
    </defs>
    <g fill="none" fill-rule="evenodd" stroke-linecap="round" stroke-linejoin="round">
        <g>
            <g filter="url(#ekhrvfbj4a)" transform="translate(-129.000000, -1406.000000) translate(0.000000, 1381.000000)">
                <g>
                    <g stroke="#200E32" stroke-width="1.5">
                        <path d="M14.286 0h3.266C18.904 0 20 1.106 20 2.47v3.294c0 1.363-1.096 2.47-2.448 2.47h-3.266c-1.353 0-2.45-1.107-2.45-2.47V2.47c0-1.364 1.097-2.47 2.45-2.47zM2.449 0h3.265c1.353 0 2.45 1.106 2.45 2.47v3.294c0 1.363-1.097 2.47-2.45 2.47H2.45C1.096 8.234 0 7.127 0 5.764V2.47C0 1.106 1.096 0 2.449 0zM2.449 11.766h3.265c1.353 0 2.45 1.106 2.45 2.47v3.294c0 1.364-1.097 2.47-2.45 2.47H2.45C1.096 20 0 18.894 0 17.53v-3.293c0-1.365 1.096-2.471 2.449-2.471zM14.286 11.766h3.266c1.352 0 2.448 1.106 2.448 2.47v3.294c0 1.364-1.096 2.47-2.448 2.47h-3.266c-1.353 0-2.45-1.106-2.45-2.47v-3.293c0-1.365 1.097-2.471 2.45-2.471z" transform="translate(129.000000, 25.000000) translate(2.000000, 2.000000)"/>
                    </g>
                </g>
            </g>
        </g>
    </g>
</svg>
