<svg xmlns="http://www.w3.org/2000/svg" width="24" height="24" viewBox="0 0 24 24">
    <defs>
        <filter id="1cg4powr0a" color-interpolation-filters="auto">
            <feColorMatrix in="SourceGraphic" values="0 0 0 0 0.588235 0 0 0 0 0.623529 0 0 0 0 0.752941 0 0 0 1.000000 0"/>
        </filter>
    </defs>
    <g fill="none" fill-rule="evenodd" stroke-linecap="round" stroke-linejoin="round">
        <g>
            <g filter="url(#1cg4powr0a)" transform="translate(-228.000000, -1406.000000) translate(0.000000, 1381.000000)">
                <g>
                    <g stroke="#200E32" stroke-width="1.5">
                        <path d="M9.261 17.854c-2.17-1.336-4.19-2.908-6.022-4.689C1.951 11.883.971 10.32.373 8.595-.703 5.25.553 1.421 4.071.288 5.92-.308 7.938.033 9.496 1.2h0C11.054.034 13.072-.306 14.921.288c3.517 1.133 4.783 4.962 3.707 8.307-.598 1.725-1.578 3.288-2.866 4.57-1.832 1.78-3.851 3.353-6.022 4.689L9.505 18l-.244-.146zM13.24 4.053c1.065.34 1.822 1.297 1.916 2.422" transform="translate(228.000000, 25.000000) translate(2.500000, 3.000000)"/>
                    </g>
                </g>
            </g>
        </g>
    </g>
</svg>
